**ABCDEFGHIJKLMNOPQRSTUVWXYZabcdefghijklmnopqrstuvwxyz**************************
**PARASOLID !"#$%&'()*+,-./:;<=>?@[\]^_`{|}~0123456789**************************
**PART1;
MC=Intel x86/Windows NT;
MC_MODEL=intel x86 level 15 revision 0403;
MC_ID=pc198;
OS=windows nt;
OS_RELEASE=5.1 (workstation) (build 2600: service pack 2) ;
FRU=mdc_ugii_v7.0_djl_can_vrh;
APPL=unigraphics;
SITE=unknown;
USER=haeg;
FORMAT=text;
GUISE=transmit;
KEY=1331TxxxSR_K;
FILE=T:\users\haegele\__Huellen\1331TxxxSR_K.x_t;
DATE=3-jan-2008;
**PART2;
SCH=SCH_1601186_16100;
USFLD_SIZE=0;
**PART3;
**END_OF_HEADER*****************************************************************
T51 : TRANSMIT FILE created by modeller version 160118623 SCH_1601186_16100_1300
6186 0 12 255 1 8274 2 3 0 0 0 0 1e3 1e-8 0 0 0 1 0 1 1 4 5 6 7 8 9 10 81 255 2
 2 8204 11 1 0 0 0 0 12 13 70 11 CI9 list_type0 0 1 uI10 notransmit0 0 1 lCCCDCC
DI12 finger_index0 0 1 dI12 finger_block1012 0 CZ3 0 4 T1 0 0 2 20 1 14 14 13 25
5 4 3 0 1 0 15 0 0 16 0 51 255 5 18 0 17 18 0 0 +0 0 0 0 0 1 .0065 1 0 0 31 255
 6 4509 0 19 20 0 0 -0 0 -.0021 0 0 -1 -1 0 0 75e-5 29 255 7 6109 0 10 21 0 -.00
2969111820056635 -.0053 .0312 19 255 8 1 0 1 16 0 22 V16 255 9 4606 0 ?23 0 19 2
4 0 0 1 18 255 10 6106 0 25 0 26 7 ?1 17 255 25 0 27 28 29 10 30 31 0 32 -18 26
 4864 0 33 10 34 21 ?1 17 33 0 35 36 37 26 38 39 0 40 +18 34 4860 0 41 26 42 43
 ?1 29 21 4867 0 26 43 7 -.00482098276275274 .003696451027842925 .031 29 43 4863
 0 34 44 21 -.00369645102784293 .00482098276275273 .031 29 44 4855 0 42 45 43 -.
004248296878312175 .003942538279912395 .031 18 42 4853 0 46 34 47 44 ?1 29 45 48
52 0 47 48 44 -.0039425382799124 .00424829687831217 .031 18 47 4850 0 49 42 50 4
5 ?1 29 48 4841 0 50 51 45 -.003696451027842925 -.00482098276275274 .031 18 50 4
838 0 52 47 53 48 ?1 29 51 4837 0 53 54 48 -.00482098276275273 -.003696451027842
93 .031 18 53 4834 0 55 50 56 51 ?1 29 54 4825 0 56 57 51 .00482098276275274 -.0
03696451027842925 .031 18 56 4822 0 58 53 59 54 ?1 29 57 4821 0 59 60 54 .003696
45102784293 -.00482098276275273 .031 18 59 4818 0 61 56 62 57 ?1 29 60 4809 0 62
 63 57 .003696451027842925 .00482098276275274 .031 18 62 4806 0 64 59 65 60 ?1 2
9 63 4805 0 65 66 60 .00482098276275273 .00369645102784293 .031 18 65 4802 0 67
 62 68 63 ?1 29 66 4797 0 68 69 63 -.003942538279912395 -.004248296878312175 .03
1 18 68 4795 0 70 65 71 66 ?1 29 69 4794 0 71 72 66 -.00424829687831217 -.003942
5382799124 .031 18 71 4792 0 73 68 74 69 ?1 29 72 4787 0 74 75 69 .0042482968783
12175 -.003942538279912395 .031 18 74 4785 0 76 71 77 72 ?1 29 75 4784 0 77 78 7
2 .0039425382799124 -.00424829687831217 .031 18 77 4782 0 79 74 80 75 ?1 29 78 4
777 0 80 81 75 .003942538279912395 .004248296878312175 .031 18 80 4775 0 82 77 8
3 78 ?1 29 81 5238 0 83 84 78 .00424829687831217 .0039425382799124 .031 18 83 50
59 0 85 80 86 81 ?1 29 84 7862 0 86 87 81 .00482098276275273 .00369645102784293
 .0312 18 86 6833 0 88 83 89 84 ?1 29 87 7863 0 89 90 84 .00482098276275274 -.00
3696451027842925 .0312 18 89 6819 0 91 86 92 87 ?1 29 90 7864 0 92 93 87 .003696
45102784293 -.00482098276275273 .0312 18 92 6818 0 94 89 95 90 ?1 29 93 7865 0 9
5 96 90 -.003696451027842925 -.00482098276275274 .0312 18 95 6814 0 97 92 98 93
 ?1 29 96 7866 0 98 99 93 -.00482098276275274 .003696451027842925 .0312 18 98 68
12 0 100 95 101 96 ?1 29 99 7867 0 101 102 96 -.00482098276275273 -.003696451027
84293 .0312 18 101 6813 0 103 98 104 99 ?1 29 102 7868 0 104 105 99 -.0036964510
2784293 .00482098276275273 .0312 18 104 6811 0 106 101 107 102 ?1 29 105 7869 0
 107 108 102 .003696451027842925 .00482098276275274 .0312 18 107 6832 0 109 104
 110 105 ?1 29 108 7871 0 110 111 105 .002969111820056635 -.0053 .0312 18 110 68
34 0 28 107 112 108 ?1 29 111 7872 0 112 113 108 -.002969111820056635 .0053 .031
2 18 112 6831 0 114 110 115 111 ?1 29 113 7873 0 115 116 111 .002969111820056635
 .0053 .0312 18 115 6817 0 117 112 118 113 ?1 29 116 7874 0 118 119 113 -.001 -.
0053 .03125358983848625 18 118 6820 0 120 115 121 116 ?1 29 119 7875 0 121 122 1
16 .001 -.0053 .03125358983848625 18 121 6845 0 123 118 124 119 ?1 29 122 7876 0
 124 125 119 -.001 .0053 .03125358983848625 18 124 6842 0 126 121 127 122 ?1 29
 125 7877 0 127 128 122 .001 .0053 .0322 18 127 6843 0 129 124 130 125 ?1 29 128
 7878 0 130 131 125 -.001 .0053 .0322 18 130 6827 0 132 127 133 128 ?1 29 131 78
79 0 133 134 128 .001 -.0053 .0322 18 133 6822 0 135 130 136 131 ?1 29 134 7880
 0 136 137 131 -.001 -.0053 .0322 18 136 6846 0 138 133 139 134 ?1 29 137 7897 0
 139 140 134 .003762977544445355 -.0053 .0312 18 139 6848 0 141 136 142 137 ?1 2
9 140 7898 0 142 143 137 .003762977544445355 .0053 .0322 18 142 6844 0 144 139 1
45 140 ?1 29 143 7899 0 145 146 140 -.003762977544445355 .0053 .0322 18 145 6839
 0 147 142 148 143 ?1 29 146 7900 0 148 149 143 -.003762977544445355 .0053 .0312
 18 148 6841 0 150 145 151 146 ?1 29 149 7901 0 151 152 146 .003762977544445355
 .0053 .0312 18 151 6840 0 153 148 154 149 ?1 29 152 7902 0 154 155 149 -.003762
977544445355 -.0053 .0312 18 154 6816 0 30 151 156 152 ?1 29 155 7903 0 156 157
 152 -.003762977544445355 -.0053 .0322 18 156 6847 0 158 154 159 155 ?1 29 157 7
904 0 159 160 155 .003762977544445355 -.0053 .0322 18 159 6838 0 161 156 162 157
 ?1 29 160 8017 0 162 163 157 45e-5 -.0055 .03375 18 162 6989 0 164 159 165 160
 ?1 29 163 8018 0 165 166 160 -45e-5 -.0053 .03375 18 165 6991 0 167 162 168 163
 ?1 29 166 8019 0 168 169 163 .001 -.0055 .0347 18 168 6824 0 170 165 171 166 ?1
 29 169 8020 0 171 172 166 .001 -.0053 .0347 18 171 6823 0 173 168 174 169 ?1 29
 172 8021 0 174 175 169 .000826794919243112 -.0055 .035 18 174 6978 0 176 171 17
7 172 ?1 29 175 8022 0 177 178 172 .000826794919243112 -.0053 .035 18 177 6983 0
 179 174 180 175 ?1 29 178 8023 0 180 181 175 -.000826794919243112 -.0055 .035 1
8 180 6979 0 182 177 183 178 ?1 29 181 8024 0 183 184 178 -.000826794919243113 -
.0053 .035 18 183 6982 0 185 180 186 181 ?1 29 184 8025 0 186 187 181 -.001 -.00
53 .0347 18 186 6977 0 188 183 189 184 ?1 29 187 8026 0 189 190 184 -.001 -.0055
 .0347 18 189 6980 0 191 186 192 187 ?1 29 190 8027 0 192 193 187 -.001 -.0055 .
0316 18 192 6821 0 194 189 195 190 ?1 29 193 8028 0 195 196 190 .001 -.0055 .031
6 18 195 6981 0 197 192 198 193 ?1 29 196 8033 0 198 199 193 -45e-5 -.0053 .0328
5 18 198 6985 0 200 195 201 196 ?1 29 199 8034 0 201 202 196 45e-5 -.0053 .03285
 18 201 6987 0 203 198 204 199 ?1 29 202 8035 0 204 205 199 45e-5 -.0053 .03375
 18 204 6990 0 206 201 207 202 ?1 29 205 8036 0 207 208 202 45e-5 -.0055 .03285
 18 207 6988 0 209 204 210 205 ?1 29 208 8037 0 210 211 205 -45e-5 -.0055 .03285
 18 210 6986 0 212 207 213 208 ?1 29 211 8038 0 213 214 208 -45e-5 -.0055 .03375
 18 213 6984 0 215 210 216 211 ?1 29 214 8039 0 216 217 211 -45e-5 .0055 .03375
 18 216 7003 0 218 213 219 214 ?1 29 217 8040 0 219 220 214 45e-5 .0053 .03375 1
8 219 7005 0 221 216 222 217 ?1 29 220 8041 0 222 223 217 -.001 .0055 .0347 18 2
22 6829 0 224 219 225 220 ?1 29 223 8042 0 225 226 220 -.001 .0053 .0347 18 225
 6828 0 227 222 228 223 ?1 29 226 8043 0 228 229 223 -.000826794919243112 .0055
 .035 18 228 6992 0 230 225 231 226 ?1 29 229 8044 0 231 232 226 -.0008267949192
43112 .0053 .035 18 231 6997 0 233 228 234 229 ?1 29 232 8045 0 234 235 229 .000
826794919243112 .0055 .035 18 234 6993 0 236 231 237 232 ?1 29 235 8046 0 237 23
8 232 .000826794919243113 .0053 .035 18 237 6996 0 239 234 240 235 ?1 29 238 804
7 0 240 241 235 .001 .0053 .0347 18 240 6995 0 242 237 243 238 ?1 29 241 8048 0
 243 244 238 .001 .0055 .0347 18 243 6994 0 245 240 246 241 ?1 29 244 8049 0 246
 247 241 .001 .0055 .0316 18 246 6826 0 248 243 249 244 ?1 29 247 8050 0 249 250
 244 -.001 .0055 .0316 18 249 6830 0 251 246 252 247 ?1 29 250 8058 0 252 253 24
7 45e-5 .0053 .03285 18 252 6999 0 254 249 255 250 ?1 29 253 8059 0 255 256 250
 -45e-5 .0053 .03285 18 255 7001 0 257 252 258 253 ?1 29 256 8060 0 258 259 253
 -45e-5 .0053 .03375 18 258 7004 0 260 255 261 256 ?1 29 259 8061 0 261 262 256
 -45e-5 .0055 .03285 18 261 7002 0 263 258 264 259 ?1 29 262 8062 0 264 265 259
 45e-5 .0055 .03285 18 264 7000 0 266 261 267 262 ?1 29 265 8063 0 267 268 262 4
5e-5 .0055 .03375 18 267 6998 0 269 264 270 265 ?1 29 268 8064 0 270 0 265 .001
 .0053 .03125358983848625 18 270 6825 0 271 267 0 268 ?1 17 271 0 272 248 273 27
0 129 274 0 275 -15 255 272 7049 0 271 276 0 17 248 0 272 277 271 246 275 278 0
 279 +17 273 0 272 271 280 127 242 281 0 0 -17 129 0 282 144 283 127 271 274 0 2
84 +16 274 6525 0 ?129 285 281 286 281 281 1 17 275 0 287 288 289 270 248 278 0
 283 -15 287 7059 0 288 290 0 17 288 0 287 251 275 124 283 291 0 292 -17 289 0 2
87 275 251 246 293 294 0 0 +16 278 6445 0 ?248 295 296 297 0 0 1 17 283 0 282 12
9 126 270 288 291 0 0 +15 282 7093 0 298 299 0 17 126 0 282 283 300 124 132 301
 0 288 -16 291 6524 0 ?283 302 303 304 0 0 1 16 302 6462 0 ?305 306 291 307 308
 309 1 16 303 6501 0 ?310 291 311 312 0 0 1 30 255 304 7575 0 291 312 313 0 +.00
1 .0053 .03125358983848625 1 0 0 30 312 7639 0 303 314 304 0 --.0037629775444453
55 -.0053 .0322 0 0 -1 30 313 5197 0 306 304 315 0 +.00465768344656719 .00353315
1711657385 .031 .707106781186549 -.707106781186547 0 16 306 5041 0 ?316 317 302
 313 0 0 1 31 315 5196 0 317 313 318 0 -.00507349115501348 .00507349115501348 .0
31 0 0 1 1 0 0 .0014 16 317 5017 0 ?64 319 306 315 319 319 1 31 318 5195 0 320 3
15 321 0 +0 0 .031 0 0 1 1 0 0 .006075 16 320 5015 0 ?67 322 319 318 323 322 1 3
1 321 5194 0 324 318 325 0 -.00507349115501348 -.00507349115501348 .031 0 0 1 1
 0 0 .0014 16 324 5014 0 ?58 326 322 321 327 327 1 31 325 5193 0 326 321 328 0 -
-.00507349115501348 .00507349115501348 .031 0 0 1 1 0 0 .0014 16 326 5019 0 ?49
 329 324 325 39 39 1 30 328 5192 0 329 325 330 0 +.003533151711657385 -.00465768
344656719 .031 -.707106781186547 -.707106781186549 0 16 329 5042 0 ?331 327 326
 328 0 0 1 30 330 5191 0 332 328 333 0 +-.003533151711657385 .00465768344656719
 .031 .707106781186547 .707106781186549 0 16 332 5040 0 ?334 39 327 330 0 0 1 31
 333 5190 0 335 330 336 0 --.00507349115501348 -.00507349115501348 .031 0 0 1 1
 0 0 .0014 16 335 5011 0 ?52 337 323 333 337 337 1 30 336 5189 0 338 333 339 0 +
-.00465768344656719 -.003533151711657385 .031 -.707106781186549 .707106781186547
 0 16 338 5039 0 ?340 341 337 336 0 0 1 31 339 4656 0 341 336 24 0 +0 0 -.0011 0
 0 1 1 0 0 .0019 16 341 4624 0 ?342 343 338 339 0 0 1 31 24 4655 0 9 339 344 0 +
0 0 -.001 0 0 -1 -1 0 0 .0019 31 344 4586 0 345 24 346 0 +0 0 -.00115 0 0 -1 -1
 0 0 .00175 16 345 4537 0 ?347 348 343 344 0 0 1 31 346 4585 0 348 344 349 0 +0
 0 -.00205 0 0 -1 -1 0 0 .00175 16 348 4536 0 ?350 351 345 346 0 0 1 31 349 4584
 0 351 346 352 0 +0 0 -.00205 0 0 -1 -1 0 0 .0013 16 351 4535 0 ?353 354 348 349
 0 0 1 31 352 4583 0 354 349 355 0 +0 0 -.0021 0 0 -1 -1 0 0 .00125 16 354 4534
 0 ?356 357 351 352 0 0 1 31 355 4580 0 343 352 358 0 +0 0 -.0011 0 0 -1 -1 0 0
 .00125 16 343 4622 0 ?359 345 341 355 0 0 1 31 358 4579 0 357 355 360 0 +0 0 -.
00115 0 0 -1 -1 0 0 .0013 16 357 4530 0 ?361 362 354 358 0 0 1 31 360 4493 0 362
 358 363 0 -0 0 -.0079 0 0 -1 1 0 0 75e-5 16 362 4451 0 ?364 365 357 360 0 0 1 3
1 363 4490 0 365 360 366 0 +0 0 -.0081 0 0 -1 1 0 0 .000656738468369 16 365 4452
 0 ?367 368 362 363 0 0 1 31 366 3642 0 368 363 369 0 +.00507349115501348 .00507
349115501348 .0312 0 0 -1 1836909530733565e-31 1 0 .0014 16 368 2425 0 ?109 370
 365 366 0 0 1 31 369 3641 0 370 366 371 0 +.00507349115501348 -.005073491155013
48 .0312 0 0 -1 1 -1224606353822376e-31 0 .0014 16 370 2428 0 ?91 372 368 369 0
 0 1 31 371 3640 0 372 369 373 0 +-.00507349115501348 -.00507349115501348 .0312
 0 0 -1 -612303176911189e-31 -1 0 .0014 16 372 2427 0 ?97 374 370 371 0 0 1 31 3
73 3638 0 374 371 307 0 +-.00507349115501348 .00507349115501348 .0312 0 0 -1 -1
 0 0 .0014 16 374 2426 0 ?100 375 372 373 0 0 1 31 307 3532 0 376 373 377 0 -0 0
 .0312 0 0 1 1 0 0 .006075 16 376 2487 0 ?378 379 380 307 309 375 1 30 377 3462
 0 379 307 381 0 +-.00482098276275274 .003696451027842925 .0309 0 0 -1 16 379 24
82 0 ?40 382 376 377 0 0 1 30 381 3460 0 382 377 383 0 --.00369645102784293 .004
82098276275273 .0309 0 0 -1 16 382 2485 0 ?384 385 379 381 0 0 1 32 255 383 3459
 0 385 381 386 0 --.00507349115501348 .00507349115501348 .02860421880814275 -.61
2372435695795 .612372435695794 .5 -.3535533905932745 .3535533905932735 -.8660254
03784439 .0028 .0014 16 385 2644 0 ?37 387 382 383 0 0 1 30 386 3458 0 387 383 3
88 0 +-.003696451027842925 -.00482098276275274 .0309 0 0 -1 16 387 2475 0 ?389 3
90 385 386 0 0 1 30 388 3456 0 390 386 391 0 --.00482098276275273 -.003696451027
84293 .0309 0 0 -1 16 390 2478 0 ?392 393 387 388 0 0 1 30 391 3455 0 393 388 39
4 0 +.00482098276275274 -.003696451027842925 .0309 0 0 -1 16 393 2468 0 ?395 396
 390 391 0 0 1 30 394 3453 0 396 391 397 0 -.00369645102784293 -.004820982762752
73 .0309 0 0 -1 16 396 2471 0 ?398 399 393 394 0 0 1 30 397 3452 0 399 394 400 0
 +.003696451027842925 .00482098276275274 .0309 0 0 -1 16 399 2489 0 ?401 402 396
 397 0 0 1 30 400 3450 0 402 397 403 0 -.00482098276275273 .00369645102784293 .0
309 0 0 -1 16 402 2464 0 ?404 405 399 400 0 0 1 32 403 3449 0 405 400 406 0 --.0
0507349115501348 -.00507349115501348 .02860421880814275 -.612372435695794 -.6123
72435695795 .5 -.3535533905932735 -.3535533905932745 -.866025403784439 .0028 .00
14 16 405 2646 0 ?407 408 402 403 0 0 1 32 406 3448 0 408 403 409 0 -.0050734911
5501348 -.00507349115501348 .02860421880814275 .612372435695795 -.61237243569579
4 .5 .3535533905932745 -.3535533905932735 -.866025403784439 .0028 .0014 16 408 2
647 0 ?410 411 405 406 0 0 1 32 409 3447 0 411 406 412 0 -.00507349115501348 .00
507349115501348 .02860421880814275 .612372435695794 .612372435695795 .5 .3535533
905932735 .3535533905932745 -.866025403784439 .0028 .0014 16 411 2648 0 ?413 414
 408 409 0 0 1 31 412 692 0 414 409 415 0 +.00215 .003723909236273085 85e-5 0 0
 -1 .5 .866025403784438 0 65e-5 16 414 672 0 ?416 417 411 412 0 0 1 31 415 648 0
 418 412 419 0 +.00215 -.003723909236273085 85e-5 0 0 -1 .5 -.866025403784439 0
 65e-5 16 418 628 0 ?420 421 417 415 0 0 1 31 419 506 0 422 415 423 0 +-.0043 0
 85e-5 0 0 -1 -1 0 0 65e-5 16 422 486 0 ?424 425 421 419 0 0 1 31 423 424 0 426
 419 427 0 +0 0 .031 0 0 1 1 0 0 .00645 16 426 387 0 ?428 429 430 423 0 0 1 31 4
27 421 0 430 423 431 0 +0 0 .0297 0 0 1 1 0 0 .00645 16 430 389 0 ?432 426 425 4
27 0 0 1 31 431 126 0 429 427 433 0 +0 0 -.001 0 0 -1 -1 0 0 .003 16 429 108 0 ?
434 435 426 431 0 0 1 31 433 101 0 435 431 436 0 +0 0 0 0 0 -1 -1 0 0 .003 16 43
5 98 0 ?437 438 429 433 0 0 1 31 436 343 0 438 433 439 0 -0 0 2e-4 0 0 -1 -1 0 0
 .0065 16 438 340 0 ?440 441 435 436 0 0 1 31 439 349 0 441 436 442 0 +0 0 0 0 0
 -1 -1 0 0 .00638452994616208 16 441 346 0 ?443 444 438 439 0 0 1 31 442 440 0 4
44 439 445 0 -0 0 .02961339745962155 0 0 1 1 0 0 .0065 16 444 437 0 ?446 19 441
 442 0 0 1 31 445 469 0 425 442 447 0 +-.0043 0 0 0 0 -1 -1 0 0 65e-5 16 425 484
 0 ?448 430 422 445 0 0 1 31 447 611 0 421 445 20 0 +.00215 -.003723909236273085
 0 0 0 -1 -1 0 0 65e-5 16 421 626 0 ?449 422 418 447 0 0 1 31 20 655 0 417 447 6
 0 +.00215 .003723909236273085 0 0 0 -1 -1 0 0 65e-5 16 417 670 0 ?450 418 414 2
0 0 0 1 17 450 0 451 450 450 0 452 417 0 0 +15 451 685 0 450 453 454 17 452 0 45
5 452 452 0 450 417 0 0 -15 455 654 0 452 456 457 14 255 456 9 458 ?459 460 455
 4 461 +0 0 459 460 22 15 457 610 0 462 456 463 17 462 0 457 462 462 0 449 421 0
 0 -15 463 468 0 464 456 465 17 464 0 463 464 464 0 448 425 0 0 -15 465 347 0 44
3 456 466 17 443 0 465 443 443 0 467 441 0 0 +15 466 100 0 468 456 0 17 468 0 46
6 468 468 0 437 435 0 0 -17 437 0 469 437 437 0 468 435 0 0 +15 469 119 0 437 47
0 0 14 470 116 471 ?472 459 473 4 474 +0 0 472 459 22 81 1 471 8211 475 470 0 0
 476 477 478 14 472 358 477 ?479 470 480 4 481 +0 0 479 470 22 14 459 110 476 ?4
70 456 482 4 483 +0 0 470 456 22 15 473 118 0 484 470 469 51 474 122 0 470 483 4
61 0 +0 0 0 0 0 -1 .003 -1 0 0 13 22 4 0 0 0 0 0 0 8 15 14 15 6394 485 ?486 0 48
7 4 488 +486 486 486 0 22 81 1 485 8205 475 15 0 0 0 489 490 14 486 2969 489 ?17
 15 491 4 488 +15 15 17 15 22 15 487 2975 0 492 15 0 50 255 488 3333 0 15 493 49
4 0 +0 0 .0312 0 0 1 1 0 0 51 493 3340 0 495 496 488 0 -0 0 .0313 0 0 -1 .006075
 -1 0 0 51 494 689 0 453 488 497 0 +.00215 .003723909236273085 85e-5 0 0 -1 65e-
5 .5 .866025403784438 0 14 453 683 498 ?499 500 451 4 494 -0 0 499 500 22 51 497
 645 0 500 494 501 0 +.00215 -.003723909236273085 85e-5 0 0 -1 65e-5 .5 -.866025
403784439 0 14 500 639 502 ?453 503 504 4 497 -0 0 453 503 22 51 501 503 0 503 4
97 505 0 +-.0043 0 85e-5 0 0 -1 65e-5 -1 0 0 14 503 497 506 ?500 507 508 4 501 -
0 0 500 507 22 52 255 505 458 0 507 501 509 0 +0 0 .02961339745962155 0 0 -1 .00
65 .499999999999993 .866025403784443 -1 0 0 14 507 451 510 ?503 479 511 4 505 +0
 0 503 479 22 51 509 420 0 479 505 481 0 +0 0 .03035 0 0 1 .00645 1 0 0 14 479 3
99 512 ?507 472 513 4 509 +0 0 507 472 22 52 481 365 0 472 509 483 0 +0 0 2e-4 0
 0 1 .0065 .5 .866025403784439 1 0 0 50 483 124 0 459 481 474 0 +0 0 -.001 0 0 -
1 -1 0 0 81 1 512 8213 475 479 0 0 477 510 514 15 513 401 0 515 479 516 17 515 0
 513 515 515 0 428 426 0 0 -15 516 402 0 432 479 0 17 432 0 516 432 432 0 517 43
0 0 0 +17 517 0 511 517 517 0 432 430 0 0 -15 511 452 0 517 507 518 15 518 453 0
 519 507 0 17 519 0 518 519 519 0 446 444 0 0 -17 446 0 520 446 446 0 519 444 0
 0 +15 520 438 0 446 17 521 14 17 2 522 ?460 486 520 4 5 +0 0 460 486 22 15 521
 341 0 440 17 0 17 440 0 521 440 440 0 523 438 0 0 +17 523 0 524 523 523 0 440 4
38 0 0 -15 524 360 0 523 472 0 81 1 522 8207 475 17 0 0 489 525 526 14 460 15 52
5 ?456 17 527 4 18 +0 0 456 17 22 81 1 525 8208 475 460 0 0 522 458 528 15 527 3
71 0 428 460 529 50 18 17 0 460 461 5 0 +0 0 .031 0 0 1 1 0 0 50 461 11 0 456 47
4 18 0 +0 0 0 0 0 -1 -1 0 0 17 428 0 527 428 428 0 515 426 0 0 +15 529 5167 0 53
0 460 0 17 530 0 529 340 531 68 52 335 0 0 -17 340 0 529 532 530 71 70 338 0 0 +
17 531 0 529 530 533 50 61 534 0 0 -17 52 0 535 536 407 50 530 335 0 389 +15 535
 3236 0 537 538 0 17 536 0 535 539 52 95 389 387 0 0 -17 407 0 535 52 73 68 540
 405 0 530 +17 389 0 541 61 305 50 536 387 0 531 +15 541 4944 0 389 542 0 17 61
 0 541 398 389 59 531 534 0 543 +17 305 0 541 389 544 95 32 302 0 536 +17 544 0
 541 305 545 10 492 309 0 0 +17 32 0 546 30 97 10 305 302 0 547 -15 546 7026 0 1
06 548 0 17 30 0 546 549 32 154 25 31 0 29 +17 97 0 546 32 103 95 539 372 0 305
 +17 547 0 487 492 492 10 28 550 0 544 +17 492 0 487 547 547 110 544 309 0 545 -
17 28 0 27 141 25 110 547 550 0 551 -16 550 6460 0 ?547 552 31 553 552 31 1 16 5
52 6434 0 ?551 554 550 553 31 550 1 16 31 6432 0 ?30 550 555 553 550 552 1 30 55
3 7647 0 552 556 557 0 +0 -.0053 .0312 -1 0 0 30 556 7648 0 555 558 553 0 +0 -.0
053 .0322 1 0 0 30 557 7646 0 559 553 560 0 +0 .0053 .0322 1 0 0 16 559 6522 0 ?
300 561 562 557 554 562 1 30 560 7645 0 563 557 564 0 +0 .0053 .0312 -1 0 0 16 5
63 6511 0 ?298 565 566 560 561 566 1 31 564 7644 0 567 560 568 0 +0 0 .0322 0 0
 -1 1 0 0 .0065 16 567 6505 0 ?569 570 565 564 565 565 1 31 568 7643 0 571 564 5
72 0 +0 0 .0312 0 0 1 -1 0 0 .0065 16 571 6499 0 ?573 574 570 568 570 570 1 30 5
72 7642 0 574 568 575 0 +.003762977544445355 .0053 .0322 0 0 -1 16 574 6529 0 ?5
76 577 571 572 0 0 1 30 575 7641 0 577 572 314 0 --.003762977544445355 .0053 .03
22 0 0 -1 16 577 6520 0 ?578 311 574 575 0 0 1 30 314 7640 0 311 575 312 0 +.003
762977544445355 -.0053 .0322 0 0 -1 16 311 6507 0 ?579 303 577 314 0 0 1 17 579
 0 580 153 569 139 581 311 0 582 +15 580 7084 0 569 583 0 17 153 0 580 584 579 1
51 582 570 0 585 +17 569 0 580 579 584 159 586 567 0 0 +17 581 0 27 587 141 159
 579 311 0 569 -17 582 0 588 551 585 139 153 570 0 0 -15 588 7034 0 117 589 0 17
 551 0 588 94 582 110 141 552 0 492 +17 585 0 588 582 117 151 298 563 0 576 -16
 570 6509 0 ?153 571 567 568 571 571 1 17 117 0 588 585 109 115 590 308 0 298 -1
7 298 0 282 591 576 115 585 563 0 592 +17 576 0 282 298 144 151 584 574 0 0 +17
 144 0 282 576 129 142 284 554 0 584 +17 584 0 580 569 153 142 576 574 0 586 -17
 586 0 593 284 161 142 569 567 0 0 -15 593 7072 0 594 595 0 17 284 0 593 596 586
 127 144 554 0 597 -17 161 0 593 586 598 159 587 599 0 581 +17 598 0 593 161 600
 133 601 602 0 603 +17 587 0 27 123 581 133 161 599 0 598 -16 599 6497 0 ?161 60
2 604 556 602 555 1 16 602 6496 0 ?598 555 599 556 555 599 1 16 604 6531 0 ?123
 599 605 558 0 0 1 16 555 6494 0 ?600 31 602 556 599 602 1 17 600 0 593 598 594
 136 158 555 0 601 +17 594 0 593 600 606 156 147 565 0 0 -17 158 0 27 29 138 156
 600 555 0 310 -17 601 0 607 188 603 136 598 602 0 608 -15 607 7355 0 601 609 0
 17 188 0 607 610 601 186 608 611 0 612 +17 603 0 607 601 613 133 173 614 0 0 -1
7 608 0 615 120 616 136 188 611 0 0 -15 615 7039 0 120 617 0 17 120 0 615 194 60
8 118 138 618 0 619 -17 616 0 615 608 620 186 621 622 0 0 +16 611 6729 0 ?188 61
8 623 624 618 618 1 16 618 6532 0 ?138 614 611 624 611 611 1 16 623 6735 0 ?182
 611 625 626 0 0 1 30 624 7793 0 618 626 627 0 +-.001 -.0053 .0316 0 0 1 30 626
 7794 0 623 628 624 0 +.001 -.0055 .035 -1 0 0 30 627 7792 0 614 624 629 0 +.001
 -.0053 .0316 0 0 1 16 614 6442 0 ?173 630 618 627 0 0 1 30 629 7791 0 630 627 6
31 0 +.001 -.0055 .0316 0 0 1 16 630 6733 0 ?632 633 614 629 0 0 1 30 631 7790 0
 633 629 634 0 +-.001 -.0055 .0316 0 0 1 16 633 6440 0 ?620 622 630 631 0 0 1 30
 634 7789 0 622 631 635 0 +-.001 -.004175 .0347 0 1 0 16 622 6441 0 ?616 636 633
 634 0 0 1 30 635 7788 0 636 634 637 0 --.00184233937586588 -.0053 .033241025403
78445 -.5 0 -.866025403784439 16 636 6731 0 ?610 638 622 635 0 0 1 30 637 7787 0
 638 635 639 0 +-.000826794919243113 -.0053 .035 0 -1 0 16 638 6744 0 ?640 641 6
36 637 0 0 1 30 639 7786 0 641 637 642 0 --.001 -.0055 .0347 .5 0 .8660254037844
39 16 641 6736 0 ?191 643 638 639 0 0 1 30 642 7785 0 643 639 644 0 +.0008267949
19243112 -.0053 .035 0 1 0 16 643 6742 0 ?645 646 641 642 0 0 1 30 644 7784 0 64
6 642 647 0 +.00234233937586588 -.0053 .032375 .5 0 -.866025403784439 16 646 673
2 0 ?613 648 643 644 0 0 1 30 647 7783 0 648 644 649 0 +.001 -.0055 .0347 0 -1 0
 16 648 6444 0 ?170 650 646 647 0 0 1 30 649 7782 0 650 647 651 0 +.000826794919
243112 -.0055 .035 -.5 0 .866025403784439 16 650 6734 0 ?176 652 648 649 0 0 1 3
1 651 7781 0 652 649 653 0 +-867361737988404e-33 -.0053 .03375 0 1 0 -1 0 0 45e-
5 16 652 6754 0 ?206 654 650 651 0 0 1 30 653 7780 0 654 651 655 0 +45e-5 -.0053
 .0316 0 0 -1 16 654 6751 0 ?203 656 652 653 0 0 1 31 655 7779 0 656 653 657 0 +
-867361737988404e-33 -.0053 .03285 0 1 0 -1 0 0 45e-5 16 656 6748 0 ?200 605 654
 655 0 0 1 30 657 7778 0 605 655 558 0 +-45e-5 -.0053 .0316 0 0 1 16 605 6745 0
 ?658 604 656 657 0 0 1 30 558 7777 0 604 657 556 0 +.001 -.0053 .0322 0 0 -1 17
 658 0 659 215 660 165 661 605 0 662 +15 659 7376 0 658 663 0 17 215 0 659 664 6
58 213 167 665 0 666 +17 660 0 659 658 664 198 212 667 0 661 -17 661 0 668 669 6
62 198 658 605 0 0 -17 662 0 668 661 670 165 206 652 0 0 -15 668 7354 0 661 609
 607 17 670 0 668 662 669 204 203 654 0 0 -17 206 0 671 672 167 204 662 652 0 67
3 +15 671 7385 0 206 674 0 17 672 0 671 666 206 162 673 675 0 676 +17 167 0 671
 206 666 165 215 665 0 658 -17 673 0 677 203 164 204 672 675 0 670 -15 677 7382
 0 203 678 0 17 203 0 677 209 673 201 670 654 0 679 +17 164 0 677 673 209 162 68
0 681 0 672 +16 675 6755 0 ?672 682 665 683 0 0 1 16 682 6752 0 ?209 667 675 684
 0 0 1 16 665 6746 0 ?215 675 685 686 0 0 1 30 683 7812 0 675 687 684 0 +45e-5 -
5e-4 .03375 0 -1 0 31 687 7813 0 685 688 683 0 +-867361737988404e-33 -.0055 .033
75 0 -1 0 -183697019872103e-30 0 -1 45e-5 30 684 7811 0 682 683 689 0 +45e-5 -5e
-4 .03285 0 -1 0 30 689 7810 0 667 684 686 0 +-45e-5 -5e-4 .03285 0 -1 0 16 667
 6749 0 ?212 690 682 689 0 0 1 30 686 7809 0 665 689 691 0 +-45e-5 -5e-4 .03375
 0 -1 0 30 691 7798 0 690 686 692 0 +.001 -.0055 .0316 -1 0 0 16 690 6741 0 ?693
 694 667 691 0 0 1 31 692 7797 0 694 691 695 0 +.001 -.0051 .0316 -1 0 0 0 -1 0
 4e-4 16 694 6739 0 ?197 696 690 692 0 0 1 31 695 7796 0 696 692 628 0 +-.001 -.
0051 .0316 -1 0 0 0 -1 0 4e-4 16 696 6438 0 ?194 625 694 695 0 0 1 30 628 7795 0
 625 695 626 0 +.001 -.0053 .035 -1 0 0 16 625 6743 0 ?185 623 696 628 0 0 1 17
 185 0 697 640 645 183 698 625 0 610 +15 697 7367 0 699 700 0 17 640 0 697 699 1
85 180 701 638 0 702 +17 645 0 697 185 699 177 703 643 0 698 +17 698 0 607 613 6
10 177 185 625 0 0 -17 610 0 607 698 188 183 612 636 0 701 +17 612 0 704 621 701
 186 610 636 0 616 -17 701 0 704 612 702 183 640 638 0 0 -15 704 7370 0 702 705
 0 17 702 0 704 701 621 180 191 641 0 0 -17 621 0 704 702 612 189 616 622 0 0 -1
7 191 0 706 707 182 189 702 641 0 620 +15 706 7359 0 632 708 0 17 707 0 706 709
 191 192 620 633 0 693 -17 182 0 706 191 176 180 699 623 0 640 +17 620 0 615 616
 194 189 707 633 0 621 +17 194 0 615 620 120 192 619 696 0 707 +17 619 0 710 711
 693 118 194 696 0 712 -15 710 7364 0 619 713 0 17 711 0 710 197 619 121 712 714
 0 715 +17 693 0 710 619 197 192 709 690 0 0 +17 712 0 27 138 123 118 711 714 0
 0 -15 27 7102 0 123 716 0 17 138 0 27 158 712 136 120 618 0 600 +17 123 0 27 71
2 587 121 135 604 0 711 +16 714 6737 0 ?711 717 0 718 0 0 1 16 717 6771 0 ?719 7
20 714 721 0 0 1 30 718 7857 0 714 0 721 0 --.001 -.0053 .03125358983848625 -1 0
 0 30 721 7856 0 717 718 722 0 +45e-5 .0055 .03375 0 0 -1 31 722 7855 0 720 721
 723 0 +867361737988404e-33 .0055 .03285 0 1 0 183697019872103e-30 0 -1 45e-5 16
 720 6774 0 ?724 725 717 722 0 0 1 30 723 7854 0 725 722 726 0 +-45e-5 .0055 .03
285 0 0 1 16 725 6777 0 ?218 727 720 723 0 0 1 31 726 7853 0 727 723 728 0 +8673
61737988404e-33 .0055 .03375 0 1 0 183697019872103e-30 0 -1 45e-5 16 727 6780 0
 ?729 730 725 726 0 0 1 30 728 7852 0 731 726 732 0 +-45e-5 5e-4 .03375 0 1 0 16
 731 6779 0 ?733 734 730 728 0 0 1 30 732 7851 0 734 728 735 0 +-45e-5 5e-4 .032
85 0 1 0 16 734 6776 0 ?263 736 731 732 0 0 1 30 735 7850 0 736 732 737 0 +45e-5
 5e-4 .03285 0 1 0 16 736 6773 0 ?266 294 734 735 0 0 1 30 737 7849 0 730 735 73
8 0 +45e-5 5e-4 .03375 0 1 0 16 730 6770 0 ?269 731 727 737 0 0 1 30 738 7838 0
 294 737 739 0 +-.001 .0055 .0316 1 0 0 16 294 6455 0 ?289 296 736 738 0 0 1 31
 739 7837 0 296 738 297 0 +-.001 .0051 .0316 1 0 0 0 1 0 4e-4 16 296 6453 0 ?251
 278 294 739 0 0 1 31 297 7836 0 278 739 740 0 +.001 .0051 .0316 1 0 0 0 1 0 4e-
4 30 740 7835 0 295 297 741 0 +-.001 .0053 .035 1 0 0 16 295 6767 0 ?239 742 278
 740 0 0 1 30 741 7834 0 742 740 286 0 +-.001 .0055 .035 1 0 0 16 742 6759 0 ?23
6 281 295 741 0 0 1 30 286 7833 0 274 741 743 0 +.001 .0053 .0316 0 0 1 30 743 7
832 0 285 286 744 0 +-.001 .0053 .0316 0 0 1 16 285 6450 0 ?227 745 274 743 0 0
 1 30 744 7831 0 745 743 746 0 +-.001 .0055 .0316 0 0 1 16 745 6757 0 ?747 748 2
85 744 0 0 1 30 746 7830 0 748 744 749 0 +.001 .0055 .0316 0 0 1 16 748 6447 0 ?
277 750 745 746 0 0 1 30 749 7829 0 750 746 751 0 +.001 .004175 .0347 0 -1 0 16
 750 6448 0 ?280 752 748 749 0 0 1 30 751 7828 0 752 749 753 0 -.001842339375865
88 .0053 .03324102540378445 .5 0 -.866025403784439 16 752 6764 0 ?754 755 750 75
1 0 0 1 30 753 7827 0 755 751 756 0 +.000826794919243113 .0053 .035 0 1 0 16 755
 6768 0 ?757 758 752 753 0 0 1 30 756 7826 0 758 753 759 0 -.001 .0055 .0347 -.5
 0 .866025403784439 16 758 6760 0 ?245 760 755 756 0 0 1 30 759 7825 0 760 756 7
61 0 +-.000826794919243112 .0053 .035 0 -1 0 16 760 6766 0 ?762 763 758 759 0 0
 1 30 761 7824 0 763 759 764 0 +-.00234233937586588 .0053 .032375 -.5 0 -.866025
403784439 16 763 6765 0 ?765 766 760 761 0 0 1 30 764 7823 0 766 761 767 0 +-.00
1 .0055 .0347 0 1 0 16 766 6452 0 ?224 768 763 764 0 0 1 30 767 7822 0 768 764 7
69 0 +-.000826794919243112 .0055 .035 .5 0 .866025403784439 16 768 6758 0 ?230 7
70 766 767 0 0 1 31 769 7821 0 770 767 771 0 +867361737988404e-33 .0053 .03375 0
 -1 0 1 0 0 45e-5 16 770 6778 0 ?260 772 768 769 0 0 1 30 771 7820 0 772 769 773
 0 +-45e-5 .0053 .0316 0 0 -1 16 772 6775 0 ?257 774 770 771 0 0 1 31 773 7819 0
 774 771 775 0 +867361737988404e-33 .0053 .03285 0 -1 0 1 0 0 45e-5 16 774 6772
 0 ?254 776 772 773 0 0 1 30 775 7818 0 776 773 777 0 +45e-5 .0053 .0316 0 0 1 1
6 776 6769 0 ?778 301 774 775 0 0 1 30 777 7817 0 301 775 779 0 +-.001 .0053 .03
22 0 0 1 16 301 6449 0 ?132 780 776 777 0 0 1 30 779 7816 0 780 777 781 0 +-45e-
5 -.0055 .03375 0 0 -1 16 780 6747 0 ?664 782 301 779 0 0 1 31 781 7815 0 782 77
9 688 0 +-867361737988404e-33 -.0055 .03285 0 -1 0 -183697019872103e-30 0 -1 45e
-5 16 782 6750 0 ?783 681 780 781 0 0 1 30 688 7814 0 681 781 687 0 +45e-5 -.005
5 .03285 0 0 1 16 681 6753 0 ?164 685 782 688 0 0 1 16 685 6756 0 ?666 665 681 6
87 0 0 1 17 666 0 671 167 672 213 676 685 0 784 +17 676 0 785 680 784 162 666 68
5 0 0 -17 784 0 785 676 786 213 664 780 0 0 -15 785 7358 0 786 708 706 17 786 0
 785 784 680 210 783 782 0 0 -17 664 0 659 660 215 210 784 780 0 786 +17 680 0 7
85 786 676 207 164 681 0 0 -17 783 0 787 679 212 207 786 782 0 680 +15 787 7379
 0 200 788 0 17 679 0 787 200 783 201 209 682 0 669 -17 212 0 787 783 200 210 66
0 667 0 664 +17 200 0 787 212 679 198 669 656 0 660 +17 669 0 668 670 661 201 20
0 656 0 0 -17 209 0 677 164 203 207 679 682 0 783 +14 788 7377 789 ?678 663 787
 4 790 -0 0 678 663 22 81 1 789 8263 475 788 0 0 791 792 793 14 678 7380 792 ?67
4 788 677 4 794 -0 0 674 788 22 14 663 7374 791 ?788 795 659 4 796 -0 0 788 795
 22 51 790 7557 0 788 794 796 0 +-867361737988404e-33 -5e-4 .03285 0 -1 0 45e-5
 1 0 0 50 794 7558 0 678 797 790 0 +45e-5 -5e-4 .03285 1 0 0 0 1 0 50 796 7556 0
 663 790 798 0 +-45e-5 -5e-4 .03375 -1 0 0 0 -1 0 50 798 7555 0 795 796 799 0 +.
000826794919243112 -.0053 .035 .866025403784439 0 .5 -.5 0 .866025403784439 14 7
95 7371 800 ?663 705 801 4 798 +0 0 663 705 22 50 799 7554 0 705 798 802 0 --.00
1 -.004175 .0347 .866025403784439 0 -.5 .5 0 .866025403784439 14 705 7368 803 ?7
95 700 704 4 799 +0 0 795 700 22 50 802 7552 0 700 799 804 0 +-.001 -.0053 .035
 0 0 1 0 -1 0 14 700 7365 805 ?705 713 697 4 802 +0 0 705 713 22 50 804 7550 0 8
06 802 807 0 +.001 -.004175 .0312 -1 0 0 0 -1 0 14 806 7040 808 ?276 617 809 4 8
04 -0 0 276 617 22 50 807 7548 0 617 804 810 0 +-.001 -.004175 .0312 -1 0 0 0 -1
 0 14 617 7035 811 ?806 589 615 4 807 +0 0 806 589 22 51 810 7547 0 713 807 812
 0 --.001 -.0051 .0316 -1 0 0 4e-4 0 -1 0 14 713 7360 813 ?700 708 710 4 810 -0
 0 700 708 22 50 812 7546 0 609 810 814 0 +.001 -.0053 .0316 0 1 0 -1 0 0 14 609
 7350 815 ?708 716 668 4 812 +0 0 708 716 22 50 814 7545 0 708 812 816 0 +.001 -
.0055 .0316 0 1 0 -1 0 0 14 708 7356 817 ?713 609 785 4 814 -0 0 713 609 22 50 8
16 7465 0 716 814 818 0 +0 -.0053 .0322 0 -1 0 0 0 -1 14 716 7094 819 ?609 299 2
7 4 816 +0 0 609 299 22 50 818 7464 0 299 816 820 0 +0 .0053 .0322 0 -1 0 0 0 -1
 14 299 7085 821 ?716 583 282 4 818 -0 0 716 583 22 50 820 7463 0 595 818 822 0
 +0 0 .0322 0 0 1 -1 0 0 14 595 7069 823 ?824 290 593 4 820 +0 0 824 290 22 50 8
22 7462 0 548 820 825 0 +0 0 .0312 0 0 -1 1 0 0 14 548 7019 826 ?589 827 546 4 8
22 +589 589 589 827 22 51 825 7461 0 824 822 828 0 +0 0 .0322 0 0 -1 .0065 1 0 0
 14 824 7073 829 ?583 595 830 4 825 +583 583 583 595 22 50 828 5174 0 831 825 83
2 0 +0 -433680868994202e-33 85e-5 0 0 -1 -1 0 0 14 831 5126 833 ?834 835 836 4 8
28 +835 499 834 835 22 50 832 4652 0 837 828 838 0 +0 0 -.0011 0 0 -1 -1 0 0 14
 837 4637 839 ?827 840 841 4 832 +0 0 827 840 22 51 838 4650 0 827 832 842 0 +0
 0 -.0011 0 0 1 .0019 1 0 0 14 827 4640 843 ?548 837 844 4 838 +0 0 548 837 22 5
1 842 4578 0 845 838 846 0 +0 0 -.0021 0 0 -1 .00175 -1 0 0 14 845 4565 847 ?848
 849 850 4 842 +0 0 848 849 22 50 846 4577 0 849 842 851 0 +.0013 0 -.00205 0 0
 -1 -1 0 0 14 849 4561 852 ?845 853 854 4 846 +0 0 845 853 22 52 851 4576 0 853
 846 855 0 +0 0 -.0021 0 0 1 .00125 .707106781186547 .707106781186548 1 0 0 14 8
53 4557 856 ?849 857 858 4 851 +0 0 849 857 22 50 855 4575 0 857 851 859 0 +75e-
5 0 -.0021 0 0 -1 -1 0 0 14 857 4553 860 ?853 861 862 4 855 +0 0 853 861 22 52 8
59 4572 0 840 855 863 0 +0 0 -.00115 0 0 -1 .0013 .707106781186548 .707106781186
548 -1 0 0 14 840 4542 864 ?837 848 865 4 859 +0 0 837 848 22 50 863 4571 0 848
 859 866 0 +.00175 0 -.00115 0 0 1 1 0 0 14 848 4538 867 ?840 845 868 4 863 +0 0
 840 845 22 52 866 4487 0 869 863 870 0 +0 0 -.0079 0 0 1 75e-5 .422618261740701
 .906307787036649 -1 0 0 14 869 4477 871 ?861 872 873 4 866 +0 0 861 872 22 50 8
70 4484 0 872 866 874 0 +0 0 -.0081 0 0 -1 1 0 0 14 872 4463 875 ?869 876 877 4
 870 +0 0 869 876 22 51 874 4483 0 861 870 878 0 +0 0 .0258 0 0 -1 75e-5 1 0 0 1
4 861 4459 879 ?857 869 880 4 874 +0 0 857 869 22 50 878 3412 0 834 874 881 0 +.
00482098276275273 .00369645102784293 .0306 .612372435695794 .612372435695795 .5
 -.707106781186549 .707106781186547 0 14 834 3255 882 ?883 831 884 4 878 +0 0 88
3 831 22 50 881 3411 0 885 878 886 0 +.00369645102784293 -.00482098276275273 .03
06 .612372435695795 -.612372435695794 .5 .707106781186547 .707106781186549 0 14
 885 3252 887 ?888 883 889 4 881 +0 0 888 883 22 50 886 3410 0 890 881 891 0 +-.
00482098276275273 -.00369645102784293 .0306 -.612372435695794 -.612372435695795
 .5 .707106781186549 -.707106781186547 0 14 890 3249 892 ?538 495 893 4 886 +0 0
 538 495 22 51 891 3408 0 883 886 894 0 +.00507349115501348 .00507349115501348 .
0312 0 0 -1 .0014 1836909530733565e-31 1 0 14 883 3246 895 ?885 834 896 4 891 -0
 0 885 834 22 51 894 3406 0 888 891 897 0 +.00507349115501348 -.0050734911550134
8 .0312 0 0 -1 .0014 1 -1224606353822376e-31 0 14 888 3240 898 ?495 885 899 4 89
4 -0 0 495 885 22 51 897 3404 0 538 894 900 0 +-.00507349115501348 -.00507349115
501348 .0312 0 0 -1 .0014 -612303176911189e-31 -1 0 14 538 3234 901 ?542 890 535
 4 897 -0 0 542 890 22 50 900 3403 0 902 897 496 0 +-.00369645102784293 .0048209
8276275273 .0306 -.612372435695795 .612372435695794 .5 -.707106781186547 -.70710
6781186549 0 14 902 3228 903 ?904 542 905 4 900 +0 0 904 542 22 51 496 3401 0 90
4 900 493 0 +-.00507349115501348 .00507349115501348 .0312 0 0 -1 .0014 -1 0 0 14
 904 3225 906 ?907 902 35 4 496 -0 0 907 902 22 81 1 906 8230 475 904 0 0 903 90
8 909 14 907 4949 908 ?876 904 910 4 493 -542 876 876 904 22 15 35 3227 0 911 90
4 0 17 911 0 35 49 912 34 384 382 0 913 -17 49 0 35 37 911 47 913 326 0 914 +17
 912 0 35 911 36 104 100 374 0 0 -17 384 0 915 378 41 104 911 382 0 912 +17 913
 0 529 916 334 34 49 326 0 0 -17 916 0 529 917 913 62 41 322 0 0 -17 334 0 529 9
13 38 47 46 332 0 0 +17 38 0 529 334 918 42 33 39 0 0 -17 46 0 905 914 914 42 33
4 332 0 37 -15 905 4857 0 46 902 0 17 914 0 905 46 46 47 37 385 0 334 -17 37 0 3
5 33 49 42 914 385 0 38 +17 918 0 529 38 532 26 55 323 0 0 -16 39 5020 0 ?33 534
 332 325 326 326 1 16 534 5012 0 ?61 323 39 318 322 323 1 16 323 5021 0 ?55 335
 534 318 534 320 1 16 322 5018 0 ?41 324 320 318 320 534 1 17 41 0 915 384 401 3
4 916 322 0 911 +15 915 4952 0 401 876 0 17 401 0 915 41 590 62 919 399 0 916 +1
7 590 0 915 401 920 107 117 308 0 919 +17 919 0 896 921 64 107 401 399 0 0 -15 8
96 3248 0 922 883 0 17 921 0 896 922 919 86 109 368 0 0 -17 64 0 896 919 413 62
 917 317 0 401 +17 413 0 896 64 923 80 85 411 0 917 +17 917 0 529 316 916 80 64
 317 0 0 -17 316 0 529 924 917 83 82 306 0 0 +17 924 0 529 925 316 65 923 319 0
 0 -17 82 0 884 85 85 80 316 306 0 413 -15 884 4779 0 82 834 0 17 85 0 884 82 82
 83 413 411 0 923 -17 923 0 896 413 922 83 924 319 0 316 +17 922 0 896 923 921 6
5 404 402 0 924 -16 319 5016 0 ?923 320 317 315 317 317 1 17 404 0 926 927 67 86
 922 402 0 921 +15 926 3012 0 395 495 0 17 927 0 926 395 404 89 88 928 0 929 +17
 67 0 926 404 395 65 925 320 0 922 +17 395 0 926 67 927 56 929 393 0 925 +17 925
 0 529 930 924 56 67 320 0 0 -17 930 0 529 331 925 74 58 324 0 0 -17 331 0 529 5
33 930 77 76 329 0 0 +17 58 0 899 929 410 56 930 324 0 395 +15 899 3242 0 543 88
8 0 17 929 0 899 931 58 89 395 393 0 0 -17 410 0 899 58 79 74 932 408 0 930 +17
 79 0 899 410 543 77 533 327 0 932 +17 932 0 889 76 76 77 410 408 0 331 -15 889
 4789 0 76 885 0 17 76 0 889 932 932 74 331 329 0 410 -17 543 0 899 79 931 59 39
8 396 0 533 -17 533 0 529 531 331 59 79 327 0 0 -16 327 5013 0 ?79 332 329 321 3
24 324 1 17 931 0 899 543 929 92 91 370 0 0 -17 398 0 541 545 61 92 543 396 0 93
1 +17 545 0 541 544 398 110 94 933 0 0 +17 94 0 588 91 551 92 545 933 0 398 -16
 933 2473 0 ?545 928 309 307 375 928 1 16 928 2466 0 ?927 308 933 307 933 380 1
 16 309 6103 0 ?544 933 375 307 302 376 1 16 375 2480 0 ?934 309 374 307 376 933
 1 17 934 0 910 40 392 98 103 375 0 36 +15 910 4948 0 40 907 0 17 40 0 910 55 93
4 26 36 379 0 918 +17 392 0 910 934 55 101 537 390 0 539 +17 103 0 546 97 100 10
1 934 375 0 392 -17 36 0 35 912 33 98 40 379 0 0 -17 100 0 546 103 106 98 912 37
4 0 934 +17 106 0 546 100 114 104 378 376 0 384 -17 114 0 546 106 549 112 150 56
1 0 591 -17 378 0 915 920 384 112 106 376 0 0 +17 920 0 915 590 378 115 935 380
 0 0 +17 935 0 491 592 592 112 920 380 0 378 -16 380 6095 0 ?920 376 308 307 928
 308 1 16 308 6099 0 ?590 380 928 307 380 302 1 15 491 6398 0 592 486 0 17 592 0
 491 935 935 115 591 566 0 920 -17 591 0 282 150 298 112 592 566 0 935 +16 566 6
514 0 ?591 563 561 560 563 561 1 16 561 6517 0 ?150 566 559 560 566 563 1 17 150
 0 282 578 591 148 114 561 0 936 +17 578 0 282 300 150 145 936 577 0 0 +17 936 0
 830 573 147 148 578 577 0 549 -15 830 7078 0 573 824 0 17 573 0 830 310 936 154
 549 571 0 0 +17 147 0 830 936 310 145 594 565 0 606 +17 549 0 546 114 30 148 57
3 571 0 0 -17 310 0 830 147 573 156 29 303 0 594 +16 565 6503 0 ?147 567 563 564
 567 567 1 17 606 0 593 594 596 145 300 559 0 578 -17 596 0 593 606 284 130 597
 562 0 300 -17 300 0 282 126 578 130 606 559 0 937 +17 937 0 938 597 765 130 227
 285 0 0 -15 938 7395 0 937 939 0 17 597 0 938 242 937 127 596 562 0 273 +17 765
 0 938 937 940 225 233 763 0 941 +17 227 0 942 224 132 225 937 285 0 765 +15 942
 7054 0 292 943 0 17 224 0 942 944 227 222 941 766 0 747 +17 132 0 942 227 292 1
30 126 301 0 596 +17 292 0 942 132 944 124 251 296 0 0 -17 944 0 942 292 224 249
 747 745 0 293 -17 251 0 287 289 288 249 292 296 0 944 +17 747 0 945 230 293 222
 944 745 0 946 +17 293 0 945 747 279 249 289 294 0 0 -15 945 7389 0 747 947 0 17
 279 0 945 293 245 246 277 748 0 289 -17 245 0 945 279 236 243 948 758 0 277 +17
 277 0 272 280 248 243 279 748 0 949 +17 280 0 272 273 277 240 949 750 0 0 +17 9
49 0 950 948 951 243 280 750 0 0 -15 950 7401 0 948 952 0 17 948 0 950 953 949 2
34 245 758 0 0 -17 951 0 950 949 953 240 754 752 0 280 -17 953 0 950 951 948 237
 757 755 0 0 -17 754 0 938 940 242 237 951 752 0 953 +17 940 0 938 765 754 231 2
39 295 0 0 -17 242 0 938 754 597 240 273 281 0 951 +16 281 6762 0 ?242 274 742 2
86 274 274 1 17 239 0 954 757 762 237 940 295 0 754 +15 954 7398 0 955 956 0 17
 757 0 954 955 239 234 953 755 0 948 +17 762 0 954 239 955 231 957 760 0 940 +17
 955 0 954 762 757 228 236 742 0 957 -17 957 0 958 946 233 228 762 760 0 0 -15 9
58 7404 0 946 959 0 17 946 0 958 941 957 222 230 768 0 0 -17 233 0 958 957 941 2
31 765 763 0 762 -17 941 0 958 233 946 225 224 766 0 0 -17 230 0 945 236 747 228
 946 768 0 955 +17 236 0 945 245 230 234 955 742 0 757 +14 959 7402 960 ?961 952
 958 4 962 +0 0 961 952 22 81 1 960 8270 475 959 0 0 963 964 965 14 961 7405 964
 ?966 959 967 4 968 -0 0 966 959 22 14 952 7399 963 ?959 956 950 4 969 +0 0 959
 956 22 50 962 7570 0 959 968 969 0 +-.000826794919243112 .0053 .035 -.866025403
784439 0 .5 .5 0 .866025403784439 50 968 7571 0 961 970 962 0 +45e-5 5e-4 .03375
 1 0 0 0 1 0 50 969 7569 0 952 962 971 0 -.001 .004175 .0347 -.866025403784439 0
 -.5 -.5 0 .866025403784439 50 971 7567 0 956 969 972 0 +.001 .0053 .035 0 0 1 0
 1 0 14 956 7396 973 ?952 939 954 4 971 +0 0 952 939 22 50 972 7565 0 943 971 97
4 0 +-.001 .004175 .0312 1 0 0 0 1 0 14 943 7050 975 ?290 276 942 4 972 -0 0 290
 276 22 50 974 7563 0 276 972 976 0 +.001 .004175 .0312 1 0 0 0 1 0 14 276 7045
 977 ?943 806 272 4 974 +0 0 943 806 22 51 976 7562 0 290 974 978 0 -.001 .0051
 .0316 1 0 0 4e-4 0 1 0 14 290 7055 979 ?595 943 287 4 976 -0 0 595 943 22 50 97
8 7561 0 939 976 980 0 +-.001 .0053 .0316 0 -1 0 1 0 0 14 939 7390 981 ?956 947
 982 4 978 +0 0 956 947 22 50 980 7560 0 947 978 797 0 +-.001 .0055 .0316 0 -1 0
 1 0 0 14 947 7386 983 ?939 674 984 4 980 -0 0 939 674 22 51 797 7559 0 674 980
 794 0 +-867361737988404e-33 -5e-4 .03375 0 -1 0 45e-5 1 0 0 14 674 7383 985 ?94
7 678 671 4 797 -0 0 947 678 22 81 1 985 8265 475 674 0 0 792 983 986 80 255 1 4
75 0 987 8001 0 0 0 0 3 5 0 0 0 FFFFTFTFFFFFFF2 81 1 792 8264 475 678 0 0 789 98
5 988 81 1 983 8266 475 947 0 0 985 981 989 83 255 3 986 .8 .6 .4 81 1 981 8267
 475 939 0 0 983 973 990 83 3 989 .8 .6 .4 81 1 973 8268 475 956 0 0 981 963 991
 83 3 990 .8 .6 .4 81 1 963 8269 475 952 0 0 973 960 992 83 3 991 .8 .6 .4 83 3
 992 .8 .6 .4 83 3 988 .8 .6 .4 79 255 15 987 SDL/TYSA_COLOUR15 984 7388 0 993 9
47 945 17 993 0 984 994 995 264 724 720 0 0 -17 994 0 984 996 993 267 719 717 0
 0 -17 995 0 984 993 996 261 218 725 0 0 -17 724 0 997 998 266 261 993 720 0 995
 +15 997 7410 0 254 966 0 17 998 0 997 254 724 255 263 734 0 999 -17 266 0 997 7
24 254 264 1000 736 0 719 +17 254 0 997 266 998 252 999 774 0 1000 +17 1000 0 96
7 778 719 252 266 736 0 1001 -17 719 0 967 1000 269 264 994 717 0 993 +15 967 74
07 0 778 961 0 17 269 0 967 719 778 267 221 730 0 729 +17 778 0 967 269 1000 219
 1001 776 0 1002 +17 221 0 1003 260 729 219 269 730 0 778 -17 729 0 1003 221 733
 267 996 727 0 994 +15 1003 7416 0 260 1004 0 17 733 0 1003 729 260 216 1005 731
 0 996 +17 996 0 984 995 994 216 729 727 0 0 -17 260 0 1003 733 221 258 1002 770
 0 1005 +17 1005 0 1006 257 218 258 733 731 0 1007 -15 1006 7413 0 257 1008 0 17
 257 0 1006 263 1005 255 1007 772 0 998 +17 218 0 1006 1005 263 216 995 725 0 73
3 +17 1007 0 982 1002 999 258 257 772 0 0 -15 982 7394 0 1001 939 938 17 1002 0
 982 1001 1007 219 260 770 0 0 -17 999 0 982 1007 1001 255 254 774 0 0 -17 1001
 0 982 999 1002 252 778 776 0 0 -17 263 0 1006 218 257 261 998 734 0 724 +14 100
8 7411 1009 ?1004 966 1006 4 1010 -0 0 1004 966 22 81 1 1009 8273 475 1008 0 0 1
011 1012 1013 14 1004 7414 1012 ?0 1008 1003 4 1014 -0 0 0 1008 22 14 966 7408 1
011 ?1008 961 997 4 970 -0 0 1008 961 22 50 1010 7573 0 1008 1014 970 0 +-45e-5
 5e-4 .03285 -1 0 0 0 -1 0 51 1014 7574 0 1004 0 1010 0 +867361737988404e-33 5e-
4 .03375 0 1 0 45e-5 -1 0 0 51 970 7572 0 966 1010 968 0 +867361737988404e-33 5e
-4 .03285 0 1 0 45e-5 -1 0 0 81 1 1011 8272 475 966 0 0 964 1009 1015 81 1 964 8
271 475 961 0 0 960 1011 1016 83 3 1015 .8 .6 .4 83 3 1016 .8 .6 .4 81 1 1012 82
74 475 1004 0 0 1009 0 1017 83 3 1017 .8 .6 .4 83 3 1013 .8 .6 .4 81 1 979 8250
 475 290 0 0 975 823 1018 81 1 975 8249 475 943 0 0 977 979 1019 81 1 823 8251 4
75 595 0 0 979 829 1020 83 3 1018 .8 .6 .4 81 1 829 8252 475 824 0 0 823 1021 10
22 83 3 1020 .8 .6 .4 81 1 1021 8253 475 583 0 0 829 821 1023 83 3 1022 .8 .6 .4
 14 583 7079 1021 ?299 824 580 4 825 +824 824 299 824 22 81 1 821 8254 475 299 0
 0 1021 819 1024 83 3 1023 .8 .6 .4 81 1 819 8255 475 716 0 0 821 815 1025 83 3
 1024 .8 .6 .4 81 1 815 8256 475 609 0 0 819 817 1026 83 3 1025 .8 .6 .4 81 1 81
7 8257 475 708 0 0 815 813 1027 83 3 1026 .8 .6 .4 81 1 813 8258 475 713 0 0 817
 805 1028 83 3 1027 .8 .6 .4 81 1 805 8259 475 700 0 0 813 803 1029 83 3 1028 .8
 .6 .4 81 1 803 8260 475 705 0 0 805 800 1030 83 3 1029 .8 .6 .4 81 1 800 8261 4
75 795 0 0 803 791 1031 83 3 1030 .8 .6 .4 81 1 791 8262 475 663 0 0 800 789 103
2 83 3 1031 .8 .6 .4 83 3 1032 .8 .6 .4 81 1 977 8248 475 276 0 0 808 975 1033 8
3 3 1019 .8 .6 .4 81 1 808 8247 475 806 0 0 811 977 1034 83 3 1033 .8 .6 .4 81 1
 811 8246 475 617 0 0 1035 808 1036 83 3 1034 .8 .6 .4 81 1 1035 8245 475 589 0
 0 826 811 1037 83 3 1036 .8 .6 .4 14 589 7060 1035 ?617 548 588 4 822 +548 548
 617 548 22 81 1 826 8244 475 548 0 0 843 1035 1038 83 3 1037 .8 .6 .4 81 1 843
 8243 475 827 0 0 839 826 1039 83 3 1038 .8 .6 .4 81 1 839 8242 475 837 0 0 864
 843 1040 83 3 1039 .8 .6 .4 81 1 864 8241 475 840 0 0 867 839 1041 83 3 1040 .8
 .6 .4 81 1 867 8240 475 848 0 0 847 864 1042 83 3 1041 .8 .6 .4 81 1 847 8239 4
75 845 0 0 852 867 1043 83 3 1042 .8 .6 .4 81 1 852 8238 475 849 0 0 856 847 104
4 83 3 1043 .8 .6 .4 81 1 856 8237 475 853 0 0 860 852 1045 83 3 1044 .8 .6 .4 8
1 1 860 8236 475 857 0 0 879 856 1046 83 3 1045 .8 .6 .4 81 1 879 8235 475 861 0
 0 871 860 1047 83 3 1046 .8 .6 .4 81 1 871 8234 475 869 0 0 875 879 1048 83 3 1
047 .8 .6 .4 81 1 875 8233 475 872 0 0 1049 871 1050 83 3 1048 .8 .6 .4 81 1 104
9 8232 475 876 0 0 908 875 1051 83 3 1050 .8 .6 .4 14 876 4953 1049 ?872 907 915
 4 493 -907 495 872 907 22 81 1 908 8231 475 907 0 0 906 1049 1052 83 3 1051 .8
 .6 .4 83 3 1052 .8 .6 .4 14 495 3010 1053 ?890 888 926 4 493 -876 542 890 888 2
2 81 1 1053 8225 475 495 0 0 898 892 1054 14 542 4945 1055 ?902 538 541 4 493 -4
95 907 902 538 22 81 1 1055 8228 475 542 0 0 901 903 1056 81 1 901 8227 475 538
 0 0 892 1055 1057 81 1 903 8229 475 902 0 0 1055 906 1058 83 3 1056 .8 .6 .4 83
 3 1058 .8 .6 .4 81 1 892 8226 475 890 0 0 1053 901 1059 83 3 1057 .8 .6 .4 83 3
 1059 .8 .6 .4 81 1 898 8224 475 888 0 0 887 1053 1060 83 3 1054 .8 .6 .4 81 1 8
87 8223 475 885 0 0 895 898 1061 83 3 1060 .8 .6 .4 81 1 895 8222 475 883 0 0 88
2 887 1062 83 3 1061 .8 .6 .4 81 1 882 8221 475 834 0 0 833 895 1063 83 3 1062 .
8 .6 .4 81 1 833 8220 475 831 0 0 1064 882 1065 83 3 1063 .8 .6 .4 81 1 1064 821
9 475 835 0 0 1066 833 1067 83 3 1065 .8 .6 .4 14 835 5129 1064 ?831 499 1068 4
 828 +499 831 831 499 22 81 1 1066 8218 475 499 0 0 498 1064 1069 83 3 1067 .8 .
6 .4 14 499 5132 1066 ?835 453 1070 4 828 +831 835 835 453 22 81 1 498 8217 475
 453 0 0 502 1066 1071 83 3 1069 .8 .6 .4 81 1 502 8216 475 500 0 0 506 498 1072
 83 3 1071 .8 .6 .4 81 1 506 8215 475 503 0 0 510 502 1073 83 3 1072 .8 .6 .4 81
 1 510 8214 475 507 0 0 512 506 1074 83 3 1073 .8 .6 .4 83 3 1074 .8 .6 .4 15 10
70 5134 0 416 499 0 17 416 0 1070 416 416 0 1075 414 0 0 +17 1075 0 454 1075 107
5 0 416 414 0 0 -15 454 686 0 1075 453 0 15 1068 5131 0 420 835 0 17 420 0 1068
 420 420 0 1076 418 0 0 +17 1076 0 1077 1076 1076 0 420 418 0 0 -15 1077 642 0 1
076 500 0 83 3 965 .8 .6 .4 16 562 6761 0 ?597 559 554 557 559 554 1 16 554 6527
 0 ?144 562 552 557 562 559 1 17 29 0 27 25 158 154 310 303 0 573 -17 55 0 910 3
92 40 53 918 323 0 537 +17 537 0 535 73 539 53 392 390 0 532 -17 539 0 535 537 5
36 101 97 372 0 0 -17 73 0 535 407 537 71 532 337 0 540 +17 532 0 529 918 340 53
 73 337 0 0 -16 337 5022 0 ?73 338 335 333 335 335 1 17 540 0 893 70 70 71 407 4
05 0 340 -15 893 4799 0 70 890 0 17 70 0 893 540 540 68 340 338 0 407 -17 91 0 5
88 88 94 89 931 370 0 927 +17 88 0 588 109 91 86 927 928 0 404 -17 109 0 588 117
 88 107 921 368 0 590 +83 3 909 .8 .6 .4 15 880 4508 0 1078 861 1079 17 1078 0 8
80 1078 1078 0 1080 19 0 0 -15 1079 4462 0 364 861 0 17 364 0 1079 364 364 0 108
1 362 0 0 +17 1081 0 1082 1081 1081 0 364 362 0 0 -15 1082 4480 0 1081 869 0 17
 1080 0 1083 1080 1080 0 1078 19 0 0 +16 19 4506 0 ?1080 9 444 6 0 0 1 15 1083 4
556 0 1080 857 0 15 877 4465 0 367 872 0 17 367 0 877 367 367 0 1084 365 0 0 +17
 1084 0 873 1084 1084 0 367 365 0 0 -15 873 4479 0 1084 869 1082 15 868 4540 0 3
61 848 1085 17 361 0 868 361 361 0 1086 357 0 0 +15 1085 4541 0 1087 848 0 17 10
87 0 1085 1087 1087 0 347 345 0 0 -17 347 0 850 347 347 0 1087 345 0 0 +15 850 4
567 0 347 845 1088 15 1088 4568 0 1089 845 0 17 1089 0 1088 1089 1089 0 350 348
 0 0 -17 350 0 854 350 350 0 1089 348 0 0 +15 854 4563 0 350 849 1090 15 1090 45
64 0 1091 849 0 17 1091 0 1090 1091 1091 0 353 351 0 0 -17 353 0 858 353 353 0 1
091 351 0 0 +15 858 4559 0 353 853 1092 15 1092 4560 0 1093 853 0 17 1093 0 1092
 1093 1093 0 356 354 0 0 -17 356 0 862 356 356 0 1093 354 0 0 +15 862 4555 0 356
 857 1083 17 1086 0 1094 1086 1086 0 361 357 0 0 -15 1094 4545 0 1086 840 0 15 8
65 4544 0 359 840 1094 17 359 0 865 359 359 0 1095 343 0 0 +17 1095 0 1096 1095
 1095 0 359 343 0 0 -15 1096 4632 0 1095 837 0 15 844 4642 0 23 827 1097 17 23 0
 844 23 23 0 1098 9 0 0 +15 1097 4643 0 342 827 0 17 342 0 1097 342 342 0 1099 3
41 0 0 +17 1099 0 841 1099 1099 0 342 341 0 0 -15 841 4631 0 1099 837 1096 17 10
98 0 1100 1098 1098 0 23 9 0 0 -15 1100 4608 0 1098 459 0 15 836 5128 0 424 831
 0 17 424 0 836 424 424 0 1101 422 0 0 +17 1101 0 1102 1101 1101 0 424 422 0 0 -
15 1102 500 0 1101 503 0 15 809 7044 0 715 806 0 17 715 0 809 135 1103 121 197 6
94 0 0 -17 135 0 809 173 715 133 123 604 0 587 -17 1103 0 809 715 170 195 632 63
0 0 709 -17 197 0 710 693 711 195 715 694 0 1103 +17 170 0 809 1103 173 168 1104
 648 0 632 +17 632 0 706 176 709 168 1103 630 0 1105 +17 709 0 706 632 707 195 6
93 690 0 0 -17 176 0 706 182 632 174 1105 650 0 699 +17 1105 0 801 1104 703 168
 176 650 0 0 -15 801 7373 0 1105 795 0 17 1104 0 801 179 1105 171 170 648 0 0 -1
7 703 0 801 1105 179 174 645 643 0 0 -17 179 0 801 703 1104 177 613 646 0 645 -1
7 613 0 607 603 698 171 179 646 0 1104 +17 699 0 697 645 640 174 182 623 0 703 -
17 173 0 809 170 135 171 603 614 0 613 +83 3 793 .8 .6 .4 17 141 0 27 581 28 139
 551 552 0 579 -81 1 458 8209 475 456 0 0 525 476 1106 83 3 528 .8 .6 .4 81 1 47
6 8210 475 459 0 0 458 471 1107 83 3 1106 .8 .6 .4 83 3 1107 .8 .6 .4 81 1 489 8
206 475 486 0 0 485 522 1108 83 3 526 .8 .6 .4 83 3 1108 .8 .6 .4 81 1 477 8212
 475 472 0 0 471 512 1109 83 3 514 .8 .6 .4 83 3 1109 .8 .6 .4 15 508 499 0 448
 503 1102 17 448 0 508 448 448 0 464 425 0 0 +15 504 641 0 449 500 1077 17 449 0
 504 449 449 0 462 421 0 0 +83 3 490 .8 .6 .4 17 484 0 473 484 484 0 434 429 0 0
 -17 434 0 482 434 434 0 484 429 0 0 +15 482 112 0 434 459 1100 15 480 359 0 467
 472 524 17 467 0 480 467 467 0 443 441 0 0 -83 3 478 .8 .6 .4 19 16 5 0 1 0 8 4
 S74 255 20 14 2 0 2 1012 0 0 0 0 0 0 0 0 0 0 0 0 0 0 0 0 0 0 80 2 11 1110 1111
 8004 0 0 0 0 3 5 0 0 0 FFTFFFFFFFFFFF2 3 83 1 12 7.787 84 255 8 13 Kg/Cu M 79 1
6 1111 SDL/TYSA_DENSITY1 0 
